<svg id="my-svg" width="100%" xmlns="http://www.w3.org/2000/svg" xmlns:xlink="http://www.w3.org/1999/xlink" class="flowchart" style="max-width: 1417.84px; background-color: white;" viewBox="0 0 1417.84375 626.34375" role="graphics-document document" aria-roledescription="flowchart-v2"><style>#my-svg{font-family:"trebuchet ms",verdana,arial,sans-serif;font-size:16px;fill:#333;}@keyframes edge-animation-frame{from{stroke-dashoffset:0;}}@keyframes dash{to{stroke-dashoffset:0;}}#my-svg .edge-animation-slow{stroke-dasharray:9,5!important;stroke-dashoffset:900;animation:dash 50s linear infinite;stroke-linecap:round;}#my-svg .edge-animation-fast{stroke-dasharray:9,5!important;stroke-dashoffset:900;animation:dash 20s linear infinite;stroke-linecap:round;}#my-svg .error-icon{fill:#552222;}#my-svg .error-text{fill:#552222;stroke:#552222;}#my-svg .edge-thickness-normal{stroke-width:1px;}#my-svg .edge-thickness-thick{stroke-width:3.5px;}#my-svg .edge-pattern-solid{stroke-dasharray:0;}#my-svg .edge-thickness-invisible{stroke-width:0;fill:none;}#my-svg .edge-pattern-dashed{stroke-dasharray:3;}#my-svg .edge-pattern-dotted{stroke-dasharray:2;}#my-svg .marker{fill:#333333;stroke:#333333;}#my-svg .marker.cross{stroke:#333333;}#my-svg svg{font-family:"trebuchet ms",verdana,arial,sans-serif;font-size:16px;}#my-svg p{margin:0;}#my-svg .label{font-family:"trebuchet ms",verdana,arial,sans-serif;color:#333;}#my-svg .cluster-label text{fill:#333;}#my-svg .cluster-label span{color:#333;}#my-svg .cluster-label span p{background-color:transparent;}#my-svg .label text,#my-svg span{fill:#333;color:#333;}#my-svg .node rect,#my-svg .node circle,#my-svg .node ellipse,#my-svg .node polygon,#my-svg .node path{fill:#ECECFF;stroke:#9370DB;stroke-width:1px;}#my-svg .rough-node .label text,#my-svg .node .label text,#my-svg .image-shape .label,#my-svg .icon-shape .label{text-anchor:middle;}#my-svg .node .katex path{fill:#000;stroke:#000;stroke-width:1px;}#my-svg .rough-node .label,#my-svg .node .label,#my-svg .image-shape .label,#my-svg .icon-shape .label{text-align:center;}#my-svg .node.clickable{cursor:pointer;}#my-svg .root .anchor path{fill:#333333!important;stroke-width:0;stroke:#333333;}#my-svg .arrowheadPath{fill:#333333;}#my-svg .edgePath .path{stroke:#333333;stroke-width:1px;}#my-svg .flowchart-link{stroke:#333333;fill:none;}#my-svg .edgeLabel{background-color:rgba(232,232,232, 0.8);text-align:center;}#my-svg .edgeLabel p{background-color:rgba(232,232,232, 0.8);}#my-svg .edgeLabel rect{opacity:0.5;background-color:rgba(232,232,232, 0.8);fill:rgba(232,232,232, 0.8);}#my-svg .labelBkg{background-color:rgba(232, 232, 232, 0.5);}#my-svg .cluster rect{fill:#ffffde;stroke:#aaaa33;stroke-width:1px;}#my-svg .cluster text{fill:#333;}#my-svg .cluster span{color:#333;}#my-svg div.mermaidTooltip{position:absolute;text-align:center;max-width:200px;padding:2px;font-family:"trebuchet ms",verdana,arial,sans-serif;font-size:12px;background:hsl(80, 100%, 96.2745098039%);border:1px solid #aaaa33;border-radius:2px;pointer-events:none;z-index:100;}#my-svg .flowchartTitleText{text-anchor:middle;font-size:18px;fill:#333;}#my-svg rect.text{fill:none;stroke-width:0;}#my-svg .icon-shape,#my-svg .image-shape{background-color:rgba(232,232,232, 0.8);text-align:center;}#my-svg .icon-shape p,#my-svg .image-shape p{background-color:rgba(232,232,232, 0.8);padding:2px;}#my-svg .icon-shape .label rect,#my-svg .image-shape .label rect{opacity:0.5;background-color:rgba(232,232,232, 0.8);fill:rgba(232,232,232, 0.8);}#my-svg .label-icon{display:inline-block;height:1em;overflow:visible;vertical-align:-0.125em;}#my-svg .node .label-icon path{fill:currentColor;stroke:revert;stroke-width:revert;}#my-svg .node .neo-node{stroke:#9370DB;}#my-svg [data-look="neo"].node rect,#my-svg [data-look="neo"].cluster rect,#my-svg [data-look="neo"].node polygon{stroke:#9370DB;filter:drop-shadow(1px 2px 2px rgba(185, 185, 185, 1));}#my-svg [data-look="neo"].swimlane.cluster rect{filter:none;}#my-svg [data-look="neo"].node path{stroke:#9370DB;stroke-width:1px;}#my-svg [data-look="neo"].node .outer-path{filter:drop-shadow(1px 2px 2px rgba(185, 185, 185, 1));}#my-svg [data-look="neo"].node .neo-line path{stroke:#9370DB;filter:none;}#my-svg [data-look="neo"].node circle{stroke:#9370DB;filter:drop-shadow(1px 2px 2px rgba(185, 185, 185, 1));}#my-svg [data-look="neo"].node circle .state-start{fill:#000000;}#my-svg [data-look="neo"].icon-shape .icon{fill:#9370DB;filter:drop-shadow(1px 2px 2px rgba(185, 185, 185, 1));}#my-svg [data-look="neo"].icon-shape .icon-neo path{stroke:#9370DB;filter:drop-shadow(1px 2px 2px rgba(185, 185, 185, 1));}#my-svg :root{--mermaid-font-family:"trebuchet ms",verdana,arial,sans-serif;}</style><g><marker id="my-svg_flowchart-v2-pointEnd" class="marker flowchart-v2" viewBox="0 0 10 10" refX="5" refY="5" markerUnits="userSpaceOnUse" markerWidth="8" markerHeight="8" orient="auto"><path d="M 0 0 L 10 5 L 0 10 z" class="arrowMarkerPath" style="stroke-width: 1; stroke-dasharray: 1, 0;"/></marker><marker id="my-svg_flowchart-v2-pointStart" class="marker flowchart-v2" viewBox="0 0 10 10" refX="4.5" refY="5" markerUnits="userSpaceOnUse" markerWidth="8" markerHeight="8" orient="auto"><path d="M 0 5 L 10 10 L 10 0 z" class="arrowMarkerPath" style="stroke-width: 1; stroke-dasharray: 1, 0;"/></marker><marker id="my-svg_flowchart-v2-pointEnd-margin" class="marker flowchart-v2" viewBox="0 0 11.5 14" refX="11.5" refY="7" markerUnits="userSpaceOnUse" markerWidth="10.5" markerHeight="14" orient="auto"><path d="M 0 0 L 11.5 7 L 0 14 z" class="arrowMarkerPath" style="stroke-width: 0; stroke-dasharray: 1, 0;"/></marker><marker id="my-svg_flowchart-v2-pointStart-margin" class="marker flowchart-v2" viewBox="0 0 11.5 14" refX="1" refY="7" markerUnits="userSpaceOnUse" markerWidth="11.5" markerHeight="14" orient="auto"><polygon points="0,7 11.5,14 11.5,0" class="arrowMarkerPath" style="stroke-width: 0; stroke-dasharray: 1, 0;"/></marker><marker id="my-svg_flowchart-v2-circleEnd" class="marker flowchart-v2" viewBox="0 0 10 10" refX="11" refY="5" markerUnits="userSpaceOnUse" markerWidth="11" markerHeight="11" orient="auto"><circle cx="5" cy="5" r="5" class="arrowMarkerPath" style="stroke-width: 1; stroke-dasharray: 1, 0;"/></marker><marker id="my-svg_flowchart-v2-circleStart" class="marker flowchart-v2" viewBox="0 0 10 10" refX="-1" refY="5" markerUnits="userSpaceOnUse" markerWidth="11" markerHeight="11" orient="auto"><circle cx="5" cy="5" r="5" class="arrowMarkerPath" style="stroke-width: 1; stroke-dasharray: 1, 0;"/></marker><marker id="my-svg_flowchart-v2-circleEnd-margin" class="marker flowchart-v2" viewBox="0 0 10 10" refY="5" refX="12.25" markerUnits="userSpaceOnUse" markerWidth="14" markerHeight="14" orient="auto"><circle cx="5" cy="5" r="5" class="arrowMarkerPath" style="stroke-width: 0; stroke-dasharray: 1, 0;"/></marker><marker id="my-svg_flowchart-v2-circleStart-margin" class="marker flowchart-v2" viewBox="0 0 10 10" refX="-2" refY="5" markerUnits="userSpaceOnUse" markerWidth="14" markerHeight="14" orient="auto"><circle cx="5" cy="5" r="5" class="arrowMarkerPath" style="stroke-width: 0; stroke-dasharray: 1, 0;"/></marker><marker id="my-svg_flowchart-v2-crossEnd" class="marker cross flowchart-v2" viewBox="0 0 11 11" refX="12" refY="5.2" markerUnits="userSpaceOnUse" markerWidth="11" markerHeight="11" orient="auto"><path d="M 1,1 l 9,9 M 10,1 l -9,9" class="arrowMarkerPath" style="stroke-width: 2; stroke-dasharray: 1, 0;"/></marker><marker id="my-svg_flowchart-v2-crossStart" class="marker cross flowchart-v2" viewBox="0 0 11 11" refX="-1" refY="5.2" markerUnits="userSpaceOnUse" markerWidth="11" markerHeight="11" orient="auto"><path d="M 1,1 l 9,9 M 10,1 l -9,9" class="arrowMarkerPath" style="stroke-width: 2; stroke-dasharray: 1, 0;"/></marker><marker id="my-svg_flowchart-v2-crossEnd-margin" class="marker cross flowchart-v2" viewBox="0 0 15 15" refX="17.7" refY="7.5" markerUnits="userSpaceOnUse" markerWidth="12" markerHeight="12" orient="auto"><path d="M 1,1 L 14,14 M 1,14 L 14,1" class="arrowMarkerPath" style="stroke-width: 2.5;"/></marker><marker id="my-svg_flowchart-v2-crossStart-margin" class="marker cross flowchart-v2" viewBox="0 0 15 15" refX="-3.5" refY="7.5" markerUnits="userSpaceOnUse" markerWidth="12" markerHeight="12" orient="auto"><path d="M 1,1 L 14,14 M 1,14 L 14,1" class="arrowMarkerPath" style="stroke-width: 2.5; stroke-dasharray: 1, 0;"/></marker><g class="root"><g class="clusters"/><g class="edgePaths"><path d="M681.777,47.5L681.694,51.583C681.611,55.667,681.444,63.833,681.361,71.417C681.277,79,681.277,86,681.277,89.5L681.277,93" id="my-svg-L_START_CHECK_0" class="edge-thickness-normal edge-pattern-solid edge-thickness-normal edge-pattern-solid flowchart-link" style=";" data-edge="true" data-et="edge" data-id="L_START_CHECK_0" data-points="W3sieCI6NjgxLjc3NzM0Mzc1LCJ5Ijo0Ny41fSx7IngiOjY4MS4yNzczNDM3NSwieSI6NzJ9LHsieCI6NjgxLjI3NzM0Mzc1LCJ5Ijo5N31d" data-look="classic" marker-end="url(#my-svg_flowchart-v2-pointEnd)"/><path d="M636.966,238.032L624.548,251.584C612.131,265.136,587.296,292.24,574.878,311.292C562.461,330.344,562.461,341.344,562.461,346.844L562.461,352.344" id="my-svg-L_CHECK_GCP_0" class="edge-thickness-normal edge-pattern-solid edge-thickness-normal edge-pattern-solid flowchart-link" style=";" data-edge="true" data-et="edge" data-id="L_CHECK_GCP_0" data-points="W3sieCI6NjM2Ljk2NTYzOTgyMzUyMjcsInkiOjIzOC4wMzIwNDYwNzM1MjI3fSx7IngiOjU2Mi40NjA5Mzc1LCJ5IjozMTkuMzQzNzV9LHsieCI6NTYyLjQ2MDkzNzUsInkiOjM1Ni4zNDM3NX1d" data-look="classic" marker-end="url(#my-svg_flowchart-v2-pointEnd)"/><path d="M725.589,238.032L738.006,251.584C750.424,265.136,775.259,292.24,787.676,311.292C800.094,330.344,800.094,341.344,800.094,346.844L800.094,352.344" id="my-svg-L_CHECK_LOCAL_0" class="edge-thickness-normal edge-pattern-solid edge-thickness-normal edge-pattern-solid flowchart-link" style=";" data-edge="true" data-et="edge" data-id="L_CHECK_LOCAL_0" data-points="W3sieCI6NzI1LjU4OTA0NzY3NjQ3NzMsInkiOjIzOC4wMzIwNDYwNzM1MjI3fSx7IngiOjgwMC4wOTM3NSwieSI6MzE5LjM0Mzc1fSx7IngiOjgwMC4wOTM3NSwieSI6MzU2LjM0Mzc1fV0=" data-look="classic" marker-end="url(#my-svg_flowchart-v2-pointEnd)"/><path d="M463.969,394.59L404.486,401.383C345.003,408.175,226.036,421.759,166.553,432.052C107.07,442.344,107.07,449.344,107.07,452.844L107.07,456.344" id="my-svg-L_GCP_T1_0" class="edge-thickness-normal edge-pattern-solid edge-thickness-normal edge-pattern-solid flowchart-link" style=";" data-edge="true" data-et="edge" data-id="L_GCP_T1_0" data-points="W3sieCI6NDYzLjk2ODc1LCJ5IjozOTQuNTkwMzQ0NjEzMTQxMn0seyJ4IjoxMDcuMDcwMzEyNSwieSI6NDM1LjM0Mzc1fSx7IngiOjEwNy4wNzAzMTI1LCJ5Ijo0NjAuMzQzNzV9XQ==" data-look="classic" marker-end="url(#my-svg_flowchart-v2-pointEnd)"/><path d="M562.461,410.344L562.461,414.51C562.461,418.677,562.461,427.01,562.461,434.677C562.461,442.344,562.461,449.344,562.461,452.844L562.461,456.344" id="my-svg-L_GCP_T2_0" class="edge-thickness-normal edge-pattern-solid edge-thickness-normal edge-pattern-solid flowchart-link" style=";" data-edge="true" data-et="edge" data-id="L_GCP_T2_0" data-points="W3sieCI6NTYyLjQ2MDkzNzUsInkiOjQxMC4zNDM3NX0seyJ4Ijo1NjIuNDYwOTM3NSwieSI6NDM1LjM0Mzc1fSx7IngiOjU2Mi40NjA5Mzc1LCJ5Ijo0NjAuMzQzNzV9XQ==" data-look="classic" marker-end="url(#my-svg_flowchart-v2-pointEnd)"/><path d="M660.953,394.09L723.97,400.966C786.987,407.841,913.021,421.592,976.038,431.968C1039.055,442.344,1039.055,449.344,1039.055,452.844L1039.055,456.344" id="my-svg-L_GCP_T3_0" class="edge-thickness-normal edge-pattern-solid edge-thickness-normal edge-pattern-solid flowchart-link" style=";" data-edge="true" data-et="edge" data-id="L_GCP_T3_0" data-points="W3sieCI6NjYwLjk1MzEyNSwieSI6Mzk0LjA4OTk5NjE0Nzc5MzZ9LHsieCI6MTAzOS4wNTQ2ODc1LCJ5Ijo0MzUuMzQzNzV9LHsieCI6MTAzOS4wNTQ2ODc1LCJ5Ijo0NjAuMzQzNzV9XQ==" data-look="classic" marker-end="url(#my-svg_flowchart-v2-pointEnd)"/><path d="M728.734,391.423L664.085,398.744C599.435,406.064,470.135,420.704,405.486,431.524C340.836,442.344,340.836,449.344,340.836,452.844L340.836,456.344" id="my-svg-L_LOCAL_L1_0" class="edge-thickness-normal edge-pattern-solid edge-thickness-normal edge-pattern-solid flowchart-link" style=";" data-edge="true" data-et="edge" data-id="L_LOCAL_L1_0" data-points="W3sieCI6NzI4LjczNDM3NSwieSI6MzkxLjQyMzQ5ODIzNTA5NH0seyJ4IjozNDAuODM1OTM3NSwieSI6NDM1LjM0Mzc1fSx7IngiOjM0MC44MzU5Mzc1LCJ5Ijo0NjAuMzQzNzV9XQ==" data-look="classic" marker-end="url(#my-svg_flowchart-v2-pointEnd)"/><path d="M800.094,410.344L800.094,414.51C800.094,418.677,800.094,427.01,800.094,434.677C800.094,442.344,800.094,449.344,800.094,452.844L800.094,456.344" id="my-svg-L_LOCAL_L2_0" class="edge-thickness-normal edge-pattern-solid edge-thickness-normal edge-pattern-solid flowchart-link" style=";" data-edge="true" data-et="edge" data-id="L_LOCAL_L2_0" data-points="W3sieCI6ODAwLjA5Mzc1LCJ5Ijo0MTAuMzQzNzV9LHsieCI6ODAwLjA5Mzc1LCJ5Ijo0MzUuMzQzNzV9LHsieCI6ODAwLjA5Mzc1LCJ5Ijo0NjAuMzQzNzV9XQ==" data-look="classic" marker-end="url(#my-svg_flowchart-v2-pointEnd)"/><path d="M871.453,390.863L941.807,398.277C1012.161,405.69,1152.87,420.517,1223.224,431.43C1293.578,442.344,1293.578,449.344,1293.578,452.844L1293.578,456.344" id="my-svg-L_LOCAL_L3_0" class="edge-thickness-normal edge-pattern-solid edge-thickness-normal edge-pattern-solid flowchart-link" style=";" data-edge="true" data-et="edge" data-id="L_LOCAL_L3_0" data-points="W3sieCI6ODcxLjQ1MzEyNSwieSI6MzkwLjg2MzExMTY4MTkxNzV9LHsieCI6MTI5My41NzgxMjUsInkiOjQzNS4zNDM3NX0seyJ4IjoxMjkzLjU3ODEyNSwieSI6NDYwLjM0Mzc1fV0=" data-look="classic" marker-end="url(#my-svg_flowchart-v2-pointEnd)"/><path d="M107.07,514.344L107.07,518.51C107.07,522.677,107.07,531.01,115.827,539.073C124.583,547.135,142.096,554.926,150.853,558.822L159.609,562.718" id="my-svg-L_T1_OUT1_0" class="edge-thickness-normal edge-pattern-solid edge-thickness-normal edge-pattern-solid flowchart-link" style=";" data-edge="true" data-et="edge" data-id="L_T1_OUT1_0" data-points="W3sieCI6MTA3LjA3MDMxMjUsInkiOjUxNC4zNDM3NX0seyJ4IjoxMDcuMDcwMzEyNSwieSI6NTM5LjM0Mzc1fSx7IngiOjE2My4yNjM5NzIzNTU3NjkyMywieSI6NTY0LjM0Mzc1fV0=" data-look="classic" marker-end="url(#my-svg_flowchart-v2-pointEnd)"/><path d="M340.836,514.344L340.836,518.51C340.836,522.677,340.836,531.01,332.079,539.073C323.323,547.135,305.81,554.926,297.053,558.822L288.297,562.718" id="my-svg-L_L1_OUT1_0" class="edge-thickness-normal edge-pattern-solid edge-thickness-normal edge-pattern-solid flowchart-link" style=";" data-edge="true" data-et="edge" data-id="L_L1_OUT1_0" data-points="W3sieCI6MzQwLjgzNTkzNzUsInkiOjUxNC4zNDM3NX0seyJ4IjozNDAuODM1OTM3NSwieSI6NTM5LjM0Mzc1fSx7IngiOjI4NC42NDIyNzc2NDQyMzA4LCJ5Ijo1NjQuMzQzNzV9XQ==" data-look="classic" marker-end="url(#my-svg_flowchart-v2-pointEnd)"/><path d="M562.461,514.344L562.461,518.51C562.461,522.677,562.461,531.01,571.371,539.076C580.281,547.143,598.1,554.941,607.01,558.841L615.92,562.74" id="my-svg-L_T2_OUT2_0" class="edge-thickness-normal edge-pattern-solid edge-thickness-normal edge-pattern-solid flowchart-link" style=";" data-edge="true" data-et="edge" data-id="L_T2_OUT2_0" data-points="W3sieCI6NTYyLjQ2MDkzNzUsInkiOjUxNC4zNDM3NX0seyJ4Ijo1NjIuNDYwOTM3NSwieSI6NTM5LjM0Mzc1fSx7IngiOjYxOS41ODQyMDk3MzU1NzY5LCJ5Ijo1NjQuMzQzNzV9XQ==" data-look="classic" marker-end="url(#my-svg_flowchart-v2-pointEnd)"/><path d="M800.094,514.344L800.094,518.51C800.094,522.677,800.094,531.01,791.184,539.076C782.274,547.143,764.455,554.941,755.545,558.841L746.635,562.74" id="my-svg-L_L2_OUT2_0" class="edge-thickness-normal edge-pattern-solid edge-thickness-normal edge-pattern-solid flowchart-link" style=";" data-edge="true" data-et="edge" data-id="L_L2_OUT2_0" data-points="W3sieCI6ODAwLjA5Mzc1LCJ5Ijo1MTQuMzQzNzV9LHsieCI6ODAwLjA5Mzc1LCJ5Ijo1MzkuMzQzNzV9LHsieCI6NzQyLjk3MDQ3Nzc2NDQyMzEsInkiOjU2NC4zNDM3NX1d" data-look="classic" marker-end="url(#my-svg_flowchart-v2-pointEnd)"/><path d="M1039.055,514.344L1039.055,518.51C1039.055,522.677,1039.055,531.01,1048.635,539.092C1058.215,547.173,1077.375,555.002,1086.955,558.916L1096.535,562.831" id="my-svg-L_T3_OUT3_0" class="edge-thickness-normal edge-pattern-solid edge-thickness-normal edge-pattern-solid flowchart-link" style=";" data-edge="true" data-et="edge" data-id="L_T3_OUT3_0" data-points="W3sieCI6MTAzOS4wNTQ2ODc1LCJ5Ijo1MTQuMzQzNzV9LHsieCI6MTAzOS4wNTQ2ODc1LCJ5Ijo1MzkuMzQzNzV9LHsieCI6MTEwMC4yMzgyMDYxMjk4MDc2LCJ5Ijo1NjQuMzQzNzV9XQ==" data-look="classic" marker-end="url(#my-svg_flowchart-v2-pointEnd)"/><path d="M1293.578,514.344L1293.578,518.51C1293.578,522.677,1293.578,531.01,1283.998,539.092C1274.418,547.173,1255.258,555.002,1245.678,558.916L1236.097,562.831" id="my-svg-L_L3_OUT3_0" class="edge-thickness-normal edge-pattern-solid edge-thickness-normal edge-pattern-solid flowchart-link" style=";" data-edge="true" data-et="edge" data-id="L_L3_OUT3_0" data-points="W3sieCI6MTI5My41NzgxMjUsInkiOjUxNC4zNDM3NX0seyJ4IjoxMjkzLjU3ODEyNSwieSI6NTM5LjM0Mzc1fSx7IngiOjEyMzIuMzk0NjA2MzcwMTkyNCwieSI6NTY0LjM0Mzc1fV0=" data-look="classic" marker-end="url(#my-svg_flowchart-v2-pointEnd)"/></g><g class="edgeLabels"><g class="edgeLabel"><g class="label" data-id="L_START_CHECK_0" transform="translate(0, 0)"><foreignObject width="0" height="0"><div xmlns="http://www.w3.org/1999/xhtml" class="labelBkg" style="display: table-cell; white-space: nowrap; line-height: 1.5; max-width: 200px; text-align: center;"><span class="edgeLabel"></span></div></foreignObject></g></g><g class="edgeLabel" transform="translate(562.4609375, 319.34375)"><g class="label" data-id="L_CHECK_GCP_0" transform="translate(-13.78125, -12)"><foreignObject width="27.5625" height="24"><div xmlns="http://www.w3.org/1999/xhtml" class="labelBkg" style="display: table-cell; white-space: nowrap; line-height: 1.5; max-width: 200px; text-align: center;"><span class="edgeLabel"><p>Sim</p></span></div></foreignObject></g></g><g class="edgeLabel" transform="translate(800.09375, 319.34375)"><g class="label" data-id="L_CHECK_LOCAL_0" transform="translate(-14.6796875, -12)"><foreignObject width="29.359375" height="24"><div xmlns="http://www.w3.org/1999/xhtml" class="labelBkg" style="display: table-cell; white-space: nowrap; line-height: 1.5; max-width: 200px; text-align: center;"><span class="edgeLabel"><p>Nao</p></span></div></foreignObject></g></g><g class="edgeLabel"><g class="label" data-id="L_GCP_T1_0" transform="translate(0, 0)"><foreignObject width="0" height="0"><div xmlns="http://www.w3.org/1999/xhtml" class="labelBkg" style="display: table-cell; white-space: nowrap; line-height: 1.5; max-width: 200px; text-align: center;"><span class="edgeLabel"></span></div></foreignObject></g></g><g class="edgeLabel"><g class="label" data-id="L_GCP_T2_0" transform="translate(0, 0)"><foreignObject width="0" height="0"><div xmlns="http://www.w3.org/1999/xhtml" class="labelBkg" style="display: table-cell; white-space: nowrap; line-height: 1.5; max-width: 200px; text-align: center;"><span class="edgeLabel"></span></div></foreignObject></g></g><g class="edgeLabel"><g class="label" data-id="L_GCP_T3_0" transform="translate(0, 0)"><foreignObject width="0" height="0"><div xmlns="http://www.w3.org/1999/xhtml" class="labelBkg" style="display: table-cell; white-space: nowrap; line-height: 1.5; max-width: 200px; text-align: center;"><span class="edgeLabel"></span></div></foreignObject></g></g><g class="edgeLabel"><g class="label" data-id="L_LOCAL_L1_0" transform="translate(0, 0)"><foreignObject width="0" height="0"><div xmlns="http://www.w3.org/1999/xhtml" class="labelBkg" style="display: table-cell; white-space: nowrap; line-height: 1.5; max-width: 200px; text-align: center;"><span class="edgeLabel"></span></div></foreignObject></g></g><g class="edgeLabel"><g class="label" data-id="L_LOCAL_L2_0" transform="translate(0, 0)"><foreignObject width="0" height="0"><div xmlns="http://www.w3.org/1999/xhtml" class="labelBkg" style="display: table-cell; white-space: nowrap; line-height: 1.5; max-width: 200px; text-align: center;"><span class="edgeLabel"></span></div></foreignObject></g></g><g class="edgeLabel"><g class="label" data-id="L_LOCAL_L3_0" transform="translate(0, 0)"><foreignObject width="0" height="0"><div xmlns="http://www.w3.org/1999/xhtml" class="labelBkg" style="display: table-cell; white-space: nowrap; line-height: 1.5; max-width: 200px; text-align: center;"><span class="edgeLabel"></span></div></foreignObject></g></g><g class="edgeLabel"><g class="label" data-id="L_T1_OUT1_0" transform="translate(0, 0)"><foreignObject width="0" height="0"><div xmlns="http://www.w3.org/1999/xhtml" class="labelBkg" style="display: table-cell; white-space: nowrap; line-height: 1.5; max-width: 200px; text-align: center;"><span class="edgeLabel"></span></div></foreignObject></g></g><g class="edgeLabel"><g class="label" data-id="L_L1_OUT1_0" transform="translate(0, 0)"><foreignObject width="0" height="0"><div xmlns="http://www.w3.org/1999/xhtml" class="labelBkg" style="display: table-cell; white-space: nowrap; line-height: 1.5; max-width: 200px; text-align: center;"><span class="edgeLabel"></span></div></foreignObject></g></g><g class="edgeLabel"><g class="label" data-id="L_T2_OUT2_0" transform="translate(0, 0)"><foreignObject width="0" height="0"><div xmlns="http://www.w3.org/1999/xhtml" class="labelBkg" style="display: table-cell; white-space: nowrap; line-height: 1.5; max-width: 200px; text-align: center;"><span class="edgeLabel"></span></div></foreignObject></g></g><g class="edgeLabel"><g class="label" data-id="L_L2_OUT2_0" transform="translate(0, 0)"><foreignObject width="0" height="0"><div xmlns="http://www.w3.org/1999/xhtml" class="labelBkg" style="display: table-cell; white-space: nowrap; line-height: 1.5; max-width: 200px; text-align: center;"><span class="edgeLabel"></span></div></foreignObject></g></g><g class="edgeLabel"><g class="label" data-id="L_T3_OUT3_0" transform="translate(0, 0)"><foreignObject width="0" height="0"><div xmlns="http://www.w3.org/1999/xhtml" class="labelBkg" style="display: table-cell; white-space: nowrap; line-height: 1.5; max-width: 200px; text-align: center;"><span class="edgeLabel"></span></div></foreignObject></g></g><g class="edgeLabel"><g class="label" data-id="L_L3_OUT3_0" transform="translate(0, 0)"><foreignObject width="0" height="0"><div xmlns="http://www.w3.org/1999/xhtml" class="labelBkg" style="display: table-cell; white-space: nowrap; line-height: 1.5; max-width: 200px; text-align: center;"><span class="edgeLabel"></span></div></foreignObject></g></g></g><g class="nodes"><g class="node default" id="my-svg-flowchart-START-0" data-look="classic" transform="translate(681.27734375, 27.5)"><g class="basic label-container outer-path"><path d="M-11.5546875 -19.5 C-6.879705681104433 -19.5, -2.2047238622088656 -19.5, 11.5546875 -19.5 C11.5546875 -19.5, 11.554687499999998 -19.5, 11.554687499999998 -19.5 C12.037979877960751 -19.484501754110347, 12.521272255921504 -19.46900350822069, 12.8040567896239 -19.45993515863156 C13.255204493635455 -19.41641348221006, 13.70635219764701 -19.372891805788562, 14.048292152847864 -19.3399052695533 C14.506431178757795 -19.26583690476539, 14.964570204667725 -19.191768539977485, 15.282280759676757 -19.140403561325776 C15.718439698047058 -19.040853129845818, 16.154598636417358 -18.941302698365863, 16.50095188623539 -18.862249829261074 C16.88173012205058 -18.749236847616874, 17.26250835786577 -18.63622386597267, 17.699297751460602 -18.50658706670804 C18.14476638669698 -18.342650491074128, 18.590235021933353 -18.17871391544022, 18.872394095147794 -18.074876768247425 C19.11291970065937 -17.968403217626033, 19.35344530617094 -17.86192966700464, 20.01542041279238 -17.568892924097174 C20.275046566372936 -17.43344612607269, 20.53467271995349 -17.2979993280482, 21.123679764076783 -16.990714730406097 C21.496792570630607 -16.764531554418937, 21.86990537718443 -16.538348378431774, 22.192618073605697 -16.342718045390892 C22.559554361626684 -16.086759175283348, 22.926490649647672 -15.830800305175805, 23.217842844578712 -15.627565626425154 C23.447065507404353 -15.444766652692943, 23.67628817022999 -15.26196767896073, 24.19514120850187 -14.848196188198123 C24.487424043534237 -14.582752650801766, 24.779706878566607 -14.317309113405408, 25.120497236767985 -14.007812326905688 C25.401114219920075 -13.718052252718367, 25.681731203072168 -13.428292178531049, 25.990108442968648 -13.10986736009568 C26.232594368535846 -12.82502959408441, 26.475080294103044 -12.540191828073143, 26.800401408126582 -12.158051136245305 C26.95039430268185 -11.957074322175046, 27.10038719723712 -11.756097508104787, 27.548046464640635 -11.156274872382312 C27.808007839707383 -10.756904390876342, 28.067969214774134 -10.357533909370373, 28.229971378604247 -10.108655082055241 C28.368105478072565 -9.863384000854907, 28.506239577540885 -9.618112919654575, 28.8433739742735 -9.019496659696287 C29.05819238453252 -8.573421634415773, 29.273010794791546 -8.127346609135259, 29.38573364880834 -7.893275190886684 C29.549984978487636 -7.487571230995403, 29.714236308166928 -7.081867271104122, 29.854821729970325 -6.734618561215508 C29.963449540478337 -6.407448903456574, 30.07207735098635 -6.080279245697641, 30.24871063421488 -5.548287939305138 C30.323313421738483 -5.2637951774250045, 30.397916209262085 -4.979302415544872, 30.56578178754556 -4.339158212148133 C30.657349475541363 -3.8689774871273985, 30.748917163537165 -3.398796762106664, 30.804732276581777 -3.1121979531509023 C30.839904136750874 -2.839411951148772, 30.875075996919968 -2.566625949146642, 30.964580202509367 -1.872449005199798 C30.989652918663303 -1.4819212127700396, 31.014725634817236 -1.091393420340281, 31.044668715913414 -0.6250057626472757 C31.044668715913414 -0.2764095901585309, 31.044668715913414 0.07218658233021391, 31.044668715913414 0.625005762647271 C31.02182169104262 0.9808666167963962, 30.998974666171833 1.3367274709455212, 30.964580202509367 1.8724490051997846 C30.925898464449546 2.1724569270185863, 30.887216726389727 2.472464848837388, 30.804732276581777 3.1121979531508885 C30.721937524036843 3.537331508791983, 30.63914277149191 3.962465064433078, 30.56578178754556 4.339158212148129 C30.46237929383062 4.733476735607461, 30.358976800115677 5.127795259066792, 30.248710634214884 5.548287939305125 C30.154542901695795 5.831906146061975, 30.060375169176705 6.1155243528188254, 29.85482172997033 6.734618561215495 C29.673542511801323 7.182381734888192, 29.49226329363232 7.63014490856089, 29.385733648808344 7.893275190886679 C29.23677598519488 8.202588966563464, 29.087818321581413 8.511902742240249, 28.843373974273504 9.019496659696284 C28.64089405852466 9.37902025342313, 28.438414142775812 9.738543847149977, 28.22997137860425 10.108655082055236 C28.093485729686673 10.318333690321069, 27.957000080769095 10.528012298586901, 27.54804646464064 11.156274872382301 C27.395783377004665 11.360293538361862, 27.243520289368693 11.564312204341423, 26.800401408126582 12.158051136245302 C26.589456925529724 12.405838528584665, 26.378512442932866 12.653625920924027, 25.99010844296866 13.10986736009567 C25.797343751583707 13.308912730226126, 25.604579060198752 13.50795810035658, 25.12049723676799 14.007812326905684 C24.831890910312925 14.269916956487222, 24.54328458385786 14.53202158606876, 24.195141208501887 14.848196188198111 C23.872681355403248 15.105349340027207, 23.550221502304606 15.3625024918563, 23.217842844578715 15.627565626425152 C22.908385047066563 15.843429989757485, 22.59892724955441 16.05929435308982, 22.192618073605708 16.34271804539089 C21.89980891984829 16.520220675136223, 21.606999766090873 16.697723304881553, 21.123679764076787 16.990714730406093 C20.757469643408374 17.18176631579003, 20.39125952273996 17.37281790117396, 20.015420412792388 17.56889292409717 C19.60366024224937 17.751166937165085, 19.19190007170635 17.933440950233, 18.872394095147804 18.07487676824742 C18.485133175524336 18.217392366469557, 18.097872255900864 18.35990796469169, 17.699297751460616 18.506587066708033 C17.271014300036114 18.633699346985114, 16.842730848611613 18.760811627262196, 16.500951886235413 18.86224982926107 C16.044772233929685 18.96636985804942, 15.588592581623956 19.07048988683777, 15.282280759676766 19.140403561325773 C15.006071591684565 19.185058917572665, 14.729862423692362 19.229714273819553, 14.048292152847878 19.3399052695533 C13.557175722032552 19.387282680980128, 13.066059291217227 19.43466009240696, 12.8040567896239 19.45993515863156 C12.518556953852771 19.469090582673022, 12.233057118081643 19.478246006714482, 11.554687500000004 19.5 C11.554687500000002 19.5, 11.554687500000002 19.5, 11.5546875 19.5 C5.448305338626404 19.5, -0.6580768227471925 19.5, -11.554687499999996 19.5 C-11.992101365177794 19.48597298871819, -12.429515230355591 19.471945977436373, -12.804056789623893 19.45993515863156 C-13.148251384482844 19.42673112002008, -13.492445979341795 19.3935270814086, -14.048292152847871 19.3399052695533 C-14.298257499981593 19.299492810738936, -14.548222847115314 19.259080351924574, -15.282280759676759 19.140403561325773 C-15.64864076921254 19.056784279871717, -16.01500077874832 18.973164998417662, -16.500951886235388 18.862249829261074 C-16.765602140183486 18.78370302306681, -17.03025239413158 18.705156216872545, -17.69929775146059 18.506587066708043 C-18.089935335518476 18.3628288247605, -18.48057291957636 18.219070582812954, -18.872394095147797 18.074876768247425 C-19.285746057445095 17.891898116188717, -19.699098019742394 17.708919464130005, -20.01542041279238 17.568892924097174 C-20.31925867644925 17.41038069656508, -20.623096940106123 17.25186846903299, -21.12367976407678 16.990714730406097 C-21.54098364021005 16.737742668344325, -21.958287516343326 16.484770606282552, -22.192618073605686 16.3427180453909 C-22.49322987247954 16.13302426777154, -22.793841671353388 15.923330490152177, -23.217842844578712 15.627565626425156 C-23.471230473979862 15.425495734905741, -23.72461810338101 15.223425843386327, -24.19514120850187 14.848196188198125 C-24.442587431314283 14.623472075708177, -24.690033654126697 14.39874796321823, -25.120497236767974 14.007812326905697 C-25.392874732169613 13.726560200295244, -25.665252227571255 13.445308073684792, -25.990108442968655 13.109867360095677 C-26.197278651842314 12.866513444433842, -26.404448860715974 12.623159528772007, -26.80040140812658 12.158051136245307 C-27.089714112822733 11.770398468882071, -27.379026817518888 11.382745801518835, -27.548046464640635 11.156274872382316 C-27.69529967960648 10.930054391170014, -27.842552894572325 10.70383390995771, -28.229971378604244 10.108655082055249 C-28.354802746918214 9.887004347067059, -28.479634115232184 9.665353612078869, -28.8433739742735 9.019496659696289 C-29.05328913366522 8.58360333975449, -29.26320429305694 8.147710019812688, -29.38573364880834 7.893275190886686 C-29.558937513910085 7.465458295416452, -29.732141379011832 7.037641399946218, -29.854821729970325 6.73461856121551 C-29.97039534708509 6.386529240621028, -30.085968964199857 6.038439920026547, -30.24871063421488 5.5482879393051325 C-30.32413535505497 5.260660789461071, -30.399560075895064 4.97303363961701, -30.565781787545557 4.339158212148136 C-30.64106540547444 3.9525927452816103, -30.716349023403325 3.566027278415085, -30.804732276581777 3.112197953150904 C-30.86614010035123 2.635930998341405, -30.927547924120685 2.1596640435319068, -30.964580202509364 1.872449005199809 C-30.994375733269322 1.408359563093931, -31.024171264029277 0.9442701209880531, -31.044668715913414 0.6250057626472781 C-31.044668715913414 0.16486510705402957, -31.044668715913414 -0.295275548539219, -31.044668715913414 -0.6250057626472687 C-31.0164403114776 -1.06468594729307, -30.98821190704178 -1.5043661319388717, -30.964580202509367 -1.8724490051997822 C-30.90939056014316 -2.3004889729645206, -30.85420091777695 -2.728528940729259, -30.804732276581777 -3.112197953150895 C-30.74336229989544 -3.4273198128860622, -30.681992323209105 -3.7424416726212293, -30.56578178754556 -4.339158212148126 C-30.478497390907684 -4.672011445825148, -30.391212994269807 -5.004864679502169, -30.248710634214884 -5.548287939305123 C-30.12886359350966 -5.909248130876477, -30.009016552804436 -6.27020832244783, -29.854821729970332 -6.734618561215485 C-29.694576426240697 -7.130427559559871, -29.53433112251106 -7.526236557904259, -29.385733648808344 -7.893275190886676 C-29.230899059029646 -8.214792529491643, -29.076064469250948 -8.536309868096609, -28.843373974273504 -9.019496659696282 C-28.710747346387198 -9.254988667410782, -28.57812071850089 -9.490480675125282, -28.229971378604247 -10.108655082055243 C-28.044332188502533 -10.393846729153834, -27.858692998400816 -10.679038376252425, -27.54804646464064 -11.156274872382308 C-27.302035705245526 -11.485906877930523, -27.05602494585041 -11.815538883478737, -26.800401408126586 -12.158051136245302 C-26.49965204082851 -12.511328456197411, -26.19890267353044 -12.864605776149519, -25.990108442968662 -13.10986736009567 C-25.70109594371359 -13.408296493944007, -25.41208344445852 -13.706725627792343, -25.120497236767996 -14.007812326905677 C-24.861677231568105 -14.24286580762614, -24.60285722636821 -14.477919288346603, -24.195141208501887 -14.848196188198107 C-23.835948581126946 -15.134642750012377, -23.476755953752004 -15.421089311826648, -23.21784284457872 -15.627565626425149 C-22.974274003093868 -15.797468706319771, -22.73070516160902 -15.967371786214393, -22.19261807360571 -16.342718045390885 C-21.96465368308126 -16.48091139859427, -21.736689292556807 -16.61910475179765, -21.12367976407679 -16.99071473040609 C-20.831724471711116 -17.143027619426974, -20.53976917934544 -17.295340508447854, -20.015420412792388 -17.56889292409717 C-19.773195376098222 -17.67611876249126, -19.530970339404053 -17.78334460088535, -18.872394095147804 -18.07487676824742 C-18.524827736366156 -18.20278440114727, -18.177261377584507 -18.330692034047114, -17.69929775146062 -18.506587066708033 C-17.278866763277406 -18.63136877711352, -16.858435775094193 -18.756150487519005, -16.500951886235413 -18.862249829261067 C-16.17412322429779 -18.936846338591995, -15.847294562360169 -19.011442847922922, -15.282280759676768 -19.140403561325773 C-14.971321376379409 -19.190677062891258, -14.66036199308205 -19.24095056445674, -14.04829215284788 -19.3399052695533 C-13.575648846549019 -19.385500600875208, -13.103005540250157 -19.43109593219712, -12.804056789623903 -19.45993515863156 C-12.310893368994998 -19.47574994964676, -11.817729948366091 -19.491564740661964, -11.554687500000005 -19.5 C-11.554687500000004 -19.5, -11.554687500000004 -19.5, -11.5546875 -19.5" stroke="none" stroke-width="0" fill="#ECECFF" style=""/><path d="M-11.5546875 -19.5 C-5.866203352096973 -19.5, -0.17771920419394682 -19.5, 11.5546875 -19.5 M-11.5546875 -19.5 C-4.536837229380871 -19.5, 2.481013041238258 -19.5, 11.5546875 -19.5 M11.5546875 -19.5 C11.5546875 -19.5, 11.5546875 -19.5, 11.554687499999998 -19.5 M11.5546875 -19.5 C11.5546875 -19.5, 11.5546875 -19.5, 11.554687499999998 -19.5 M11.554687499999998 -19.5 C12.041653402898472 -19.484383951315674, 12.528619305796944 -19.468767902631352, 12.8040567896239 -19.45993515863156 M11.554687499999998 -19.5 C11.908678149937291 -19.488648208857512, 12.262668799874586 -19.477296417715024, 12.8040567896239 -19.45993515863156 M12.8040567896239 -19.45993515863156 C13.165688508055831 -19.425048981680202, 13.527320226487763 -19.39016280472885, 14.048292152847864 -19.3399052695533 M12.8040567896239 -19.45993515863156 C13.186275566298063 -19.423062972931135, 13.568494342972224 -19.386190787230714, 14.048292152847864 -19.3399052695533 M14.048292152847864 -19.3399052695533 C14.527318731604636 -19.262459967206507, 15.006345310361407 -19.18501466485971, 15.282280759676757 -19.140403561325776 M14.048292152847864 -19.3399052695533 C14.426166289434974 -19.27881350960759, 14.804040426022086 -19.217721749661884, 15.282280759676757 -19.140403561325776 M15.282280759676757 -19.140403561325776 C15.637731885182992 -19.059274161464344, 15.993183010689226 -18.978144761602913, 16.50095188623539 -18.862249829261074 M15.282280759676757 -19.140403561325776 C15.660248790241061 -19.054134824821375, 16.038216820805367 -18.967866088316978, 16.50095188623539 -18.862249829261074 M16.50095188623539 -18.862249829261074 C16.75641629621852 -18.786429333338134, 17.01188070620165 -18.710608837415194, 17.699297751460602 -18.50658706670804 M16.50095188623539 -18.862249829261074 C16.966476208426986 -18.72408465402164, 17.432000530618584 -18.585919478782206, 17.699297751460602 -18.50658706670804 M17.699297751460602 -18.50658706670804 C17.990600446292337 -18.39938498223737, 18.281903141124072 -18.292182897766697, 18.872394095147794 -18.074876768247425 M17.699297751460602 -18.50658706670804 C18.07487681516118 -18.368370499451423, 18.450455878861753 -18.230153932194803, 18.872394095147794 -18.074876768247425 M18.872394095147794 -18.074876768247425 C19.25888289386202 -17.903789641839506, 19.64537169257624 -17.73270251543159, 20.01542041279238 -17.568892924097174 M18.872394095147794 -18.074876768247425 C19.275061652729907 -17.896627785214523, 19.677729210312016 -17.718378802181622, 20.01542041279238 -17.568892924097174 M20.01542041279238 -17.568892924097174 C20.27322767537762 -17.43439504033989, 20.531034937962854 -17.299897156582603, 21.123679764076783 -16.990714730406097 M20.01542041279238 -17.568892924097174 C20.439377804285098 -17.347714624513095, 20.863335195777815 -17.126536324929013, 21.123679764076783 -16.990714730406097 M21.123679764076783 -16.990714730406097 C21.370081375837984 -16.841344625339858, 21.61648298759918 -16.69197452027362, 22.192618073605697 -16.342718045390892 M21.123679764076783 -16.990714730406097 C21.459660689628265 -16.787041118893708, 21.79564161517975 -16.58336750738132, 22.192618073605697 -16.342718045390892 M22.192618073605697 -16.342718045390892 C22.432195545118017 -16.175599172405487, 22.67177301663034 -16.00848029942008, 23.217842844578712 -15.627565626425154 M22.192618073605697 -16.342718045390892 C22.43801773867103 -16.1715378622216, 22.68341740373636 -16.000357679052314, 23.217842844578712 -15.627565626425154 M23.217842844578712 -15.627565626425154 C23.56095171502911 -15.35394543275146, 23.90406058547951 -15.080325239077768, 24.19514120850187 -14.848196188198123 M23.217842844578712 -15.627565626425154 C23.581940989596525 -15.337207044832002, 23.946039134614335 -15.04684846323885, 24.19514120850187 -14.848196188198123 M24.19514120850187 -14.848196188198123 C24.4035102761732 -14.65896091408244, 24.61187934384453 -14.469725639966757, 25.120497236767985 -14.007812326905688 M24.19514120850187 -14.848196188198123 C24.563459352164966 -14.513699395287363, 24.93177749582806 -14.179202602376602, 25.120497236767985 -14.007812326905688 M25.120497236767985 -14.007812326905688 C25.394684121966694 -13.724691856776094, 25.668871007165404 -13.4415713866465, 25.990108442968648 -13.10986736009568 M25.120497236767985 -14.007812326905688 C25.332200051616475 -13.78921178945028, 25.54390286646496 -13.57061125199487, 25.990108442968648 -13.10986736009568 M25.990108442968648 -13.10986736009568 C26.29690113400786 -12.74949120820237, 26.60369382504707 -12.389115056309059, 26.800401408126582 -12.158051136245305 M25.990108442968648 -13.10986736009568 C26.236090629913402 -12.820922686527425, 26.482072816858157 -12.531978012959168, 26.800401408126582 -12.158051136245305 M26.800401408126582 -12.158051136245305 C26.950180986717772 -11.95736014613343, 27.099960565308958 -11.756669156021553, 27.548046464640635 -11.156274872382312 M26.800401408126582 -12.158051136245305 C27.004245435520232 -11.884918710110743, 27.20808946291388 -11.61178628397618, 27.548046464640635 -11.156274872382312 M27.548046464640635 -11.156274872382312 C27.712592232789078 -10.90348838578083, 27.877138000937524 -10.650701899179348, 28.229971378604247 -10.108655082055241 M27.548046464640635 -11.156274872382312 C27.820697624282328 -10.737409474084947, 28.093348783924025 -10.318544075787582, 28.229971378604247 -10.108655082055241 M28.229971378604247 -10.108655082055241 C28.374466156753098 -9.852089971769063, 28.51896093490195 -9.595524861482884, 28.8433739742735 -9.019496659696287 M28.229971378604247 -10.108655082055241 C28.463903544699452 -9.69328483295273, 28.697835710794656 -9.277914583850217, 28.8433739742735 -9.019496659696287 M28.8433739742735 -9.019496659696287 C28.95371673075756 -8.790367564900368, 29.064059487241618 -8.561238470104449, 29.38573364880834 -7.893275190886684 M28.8433739742735 -9.019496659696287 C29.047422635616137 -8.595785248476362, 29.251471296958773 -8.172073837256438, 29.38573364880834 -7.893275190886684 M29.38573364880834 -7.893275190886684 C29.481943818939584 -7.655634210565412, 29.57815398907083 -7.417993230244141, 29.854821729970325 -6.734618561215508 M29.38573364880834 -7.893275190886684 C29.49457779909569 -7.62442803531844, 29.603421949383044 -7.355580879750194, 29.854821729970325 -6.734618561215508 M29.854821729970325 -6.734618561215508 C29.998302929152118 -6.3024760499045085, 30.141784128333907 -5.870333538593508, 30.24871063421488 -5.548287939305138 M29.854821729970325 -6.734618561215508 C29.967423659159113 -6.3954794911799056, 30.080025588347898 -6.056340421144304, 30.24871063421488 -5.548287939305138 M30.24871063421488 -5.548287939305138 C30.326585505791304 -5.251317302801403, 30.404460377367723 -4.954346666297668, 30.56578178754556 -4.339158212148133 M30.24871063421488 -5.548287939305138 C30.33499380754019 -5.2192528040518695, 30.421276980865496 -4.8902176687986, 30.56578178754556 -4.339158212148133 M30.56578178754556 -4.339158212148133 C30.642656182401286 -3.9444244419730836, 30.719530577257014 -3.5496906717980337, 30.804732276581777 -3.1121979531509023 M30.56578178754556 -4.339158212148133 C30.64587546574589 -3.927894102394324, 30.72596914394622 -3.516629992640515, 30.804732276581777 -3.1121979531509023 M30.804732276581777 -3.1121979531509023 C30.853831393128278 -2.7313949009334775, 30.902930509674775 -2.3505918487160526, 30.964580202509367 -1.872449005199798 M30.804732276581777 -3.1121979531509023 C30.858071336699517 -2.6985107358664937, 30.911410396817256 -2.284823518582085, 30.964580202509367 -1.872449005199798 M30.964580202509367 -1.872449005199798 C30.99075059141479 -1.464824073640074, 31.01692098032022 -1.05719914208035, 31.044668715913414 -0.6250057626472757 M30.964580202509367 -1.872449005199798 C30.993075642274217 -1.428609529757286, 31.021571082039063 -0.984770054314774, 31.044668715913414 -0.6250057626472757 M31.044668715913414 -0.6250057626472757 C31.044668715913414 -0.32659550314300023, 31.044668715913414 -0.028185243638724766, 31.044668715913414 0.625005762647271 M31.044668715913414 -0.6250057626472757 C31.044668715913414 -0.3097953226593547, 31.044668715913414 0.005415117328566255, 31.044668715913414 0.625005762647271 M31.044668715913414 0.625005762647271 C31.013578093347533 1.1092673050097022, 30.982487470781653 1.5935288473721334, 30.964580202509367 1.8724490051997846 M31.044668715913414 0.625005762647271 C31.019815064353864 1.0121214471937034, 30.994961412794318 1.3992371317401358, 30.964580202509367 1.8724490051997846 M30.964580202509367 1.8724490051997846 C30.904811355716973 2.3360043782278224, 30.84504250892458 2.7995597512558597, 30.804732276581777 3.1121979531508885 M30.964580202509367 1.8724490051997846 C30.926861282425335 2.164989500928283, 30.889142362341303 2.457529996656782, 30.804732276581777 3.1121979531508885 M30.804732276581777 3.1121979531508885 C30.71837936003217 3.555601928937754, 30.632026443482562 3.99900590472462, 30.56578178754556 4.339158212148129 M30.804732276581777 3.1121979531508885 C30.741027545375616 3.439308283894816, 30.677322814169457 3.7664186146387433, 30.56578178754556 4.339158212148129 M30.56578178754556 4.339158212148129 C30.491182469755977 4.623637742428668, 30.41658315196639 4.908117272709209, 30.248710634214884 5.548287939305125 M30.56578178754556 4.339158212148129 C30.43970227219362 4.819954047392681, 30.31362275684168 5.300749882637234, 30.248710634214884 5.548287939305125 M30.248710634214884 5.548287939305125 C30.16622088182967 5.796733930532195, 30.08373112944446 6.045179921759264, 29.85482172997033 6.734618561215495 M30.248710634214884 5.548287939305125 C30.119435800544302 5.937643141173321, 29.99016096687372 6.326998343041515, 29.85482172997033 6.734618561215495 M29.85482172997033 6.734618561215495 C29.73653940234111 7.026778197292905, 29.618257074711888 7.318937833370315, 29.385733648808344 7.893275190886679 M29.85482172997033 6.734618561215495 C29.704643275116705 7.10556224820685, 29.55446482026308 7.476505935198204, 29.385733648808344 7.893275190886679 M29.385733648808344 7.893275190886679 C29.23248279547688 8.211503866872432, 29.079231942145416 8.529732542858184, 28.843373974273504 9.019496659696284 M29.385733648808344 7.893275190886679 C29.265627964608253 8.142677213978128, 29.145522280408162 8.392079237069577, 28.843373974273504 9.019496659696284 M28.843373974273504 9.019496659696284 C28.68500644383063 9.300694246448998, 28.526638913387753 9.581891833201713, 28.22997137860425 10.108655082055236 M28.843373974273504 9.019496659696284 C28.652170743384918 9.35899735756558, 28.460967512496328 9.698498055434875, 28.22997137860425 10.108655082055236 M28.22997137860425 10.108655082055236 C28.014055419152584 10.44035997732629, 27.79813945970092 10.772064872597344, 27.54804646464064 11.156274872382301 M28.22997137860425 10.108655082055236 C27.963949217259117 10.517336558833799, 27.697927055913983 10.926018035612364, 27.54804646464064 11.156274872382301 M27.54804646464064 11.156274872382301 C27.39638725516519 11.359484396641193, 27.244728045689737 11.562693920900085, 26.800401408126582 12.158051136245302 M27.54804646464064 11.156274872382301 C27.36539866155743 11.40100628895664, 27.18275085847421 11.645737705530982, 26.800401408126582 12.158051136245302 M26.800401408126582 12.158051136245302 C26.606376810526463 12.385963468898764, 26.412352212926343 12.613875801552227, 25.99010844296866 13.10986736009567 M26.800401408126582 12.158051136245302 C26.614705216675283 12.376180449136625, 26.429009025223984 12.594309762027947, 25.99010844296866 13.10986736009567 M25.99010844296866 13.10986736009567 C25.739879158255462 13.36824964076839, 25.48964987354227 13.62663192144111, 25.12049723676799 14.007812326905684 M25.99010844296866 13.10986736009567 C25.664893208434435 13.445678790419574, 25.339677973900216 13.781490220743478, 25.12049723676799 14.007812326905684 M25.12049723676799 14.007812326905684 C24.859101731285755 14.245204808838569, 24.59770622580352 14.482597290771453, 24.195141208501887 14.848196188198111 M25.12049723676799 14.007812326905684 C24.86789679523602 14.237217364463575, 24.615296353704053 14.466622402021468, 24.195141208501887 14.848196188198111 M24.195141208501887 14.848196188198111 C23.881096097712675 15.098638806961135, 23.567050986923462 15.34908142572416, 23.217842844578715 15.627565626425152 M24.195141208501887 14.848196188198111 C23.90087926369456 15.082862258542738, 23.60661731888723 15.317528328887365, 23.217842844578715 15.627565626425152 M23.217842844578715 15.627565626425152 C22.87125619676663 15.869329468444693, 22.52466954895455 16.111093310464234, 22.192618073605708 16.34271804539089 M23.217842844578715 15.627565626425152 C22.956079108189183 15.810160677360974, 22.69431537179965 15.992755728296798, 22.192618073605708 16.34271804539089 M22.192618073605708 16.34271804539089 C21.96880402789164 16.478395435180083, 21.74498998217757 16.614072824969277, 21.123679764076787 16.990714730406093 M22.192618073605708 16.34271804539089 C21.97424103914399 16.475099487007483, 21.755864004682273 16.607480928624078, 21.123679764076787 16.990714730406093 M21.123679764076787 16.990714730406093 C20.73811408820477 17.191864096541924, 20.352548412332755 17.39301346267775, 20.015420412792388 17.56889292409717 M21.123679764076787 16.990714730406093 C20.702506310849007 17.210440651180555, 20.281332857621226 17.430166571955017, 20.015420412792388 17.56889292409717 M20.015420412792388 17.56889292409717 C19.73821323065175 17.69160432057194, 19.461006048511106 17.814315717046707, 18.872394095147804 18.07487676824742 M20.015420412792388 17.56889292409717 C19.756416313416867 17.683546355807085, 19.497412214041347 17.798199787517, 18.872394095147804 18.07487676824742 M18.872394095147804 18.07487676824742 C18.553444169370458 18.19225328927428, 18.234494243593108 18.309629810301136, 17.699297751460616 18.506587066708033 M18.872394095147804 18.07487676824742 C18.568423268779984 18.186740842226296, 18.264452442412164 18.298604916205168, 17.699297751460616 18.506587066708033 M17.699297751460616 18.506587066708033 C17.443415982759394 18.582531432507743, 17.18753421405817 18.658475798307457, 16.500951886235413 18.86224982926107 M17.699297751460616 18.506587066708033 C17.377659717340762 18.602047546922314, 17.05602168322091 18.697508027136593, 16.500951886235413 18.86224982926107 M16.500951886235413 18.86224982926107 C16.02892444990458 18.969987011336695, 15.556897013573748 19.07772419341232, 15.282280759676766 19.140403561325773 M16.500951886235413 18.86224982926107 C16.200769540494576 18.930764490803544, 15.900587194753738 18.999279152346016, 15.282280759676766 19.140403561325773 M15.282280759676766 19.140403561325773 C15.031486069945506 19.180950101819658, 14.780691380214247 19.22149664231354, 14.048292152847878 19.3399052695533 M15.282280759676766 19.140403561325773 C14.817740291733944 19.215506861617634, 14.353199823791122 19.2906101619095, 14.048292152847878 19.3399052695533 M14.048292152847878 19.3399052695533 C13.745079168909179 19.3691558614469, 13.441866184970477 19.3984064533405, 12.8040567896239 19.45993515863156 M14.048292152847878 19.3399052695533 C13.724654059240402 19.37112624721186, 13.401015965632926 19.402347224870418, 12.8040567896239 19.45993515863156 M12.8040567896239 19.45993515863156 C12.521654140051819 19.468991261939923, 12.239251490479736 19.47804736524829, 11.554687500000004 19.5 M12.8040567896239 19.45993515863156 C12.32547197951704 19.475282441982863, 11.846887169410182 19.49062972533417, 11.554687500000004 19.5 M11.554687500000004 19.5 C11.554687500000002 19.5, 11.554687500000002 19.5, 11.5546875 19.5 M11.554687500000004 19.5 C11.554687500000004 19.5, 11.554687500000002 19.5, 11.5546875 19.5 M11.5546875 19.5 C3.03723070927116 19.5, -5.48022608145768 19.5, -11.554687499999996 19.5 M11.5546875 19.5 C5.521094818745869 19.5, -0.5124978625082619 19.5, -11.554687499999996 19.5 M-11.554687499999996 19.5 C-12.032375873882167 19.484681463613615, -12.510064247764335 19.469362927227227, -12.804056789623893 19.45993515863156 M-11.554687499999996 19.5 C-11.94520274898564 19.48747693605685, -12.335717997971285 19.4749538721137, -12.804056789623893 19.45993515863156 M-12.804056789623893 19.45993515863156 C-13.120580499501736 19.4294004970151, -13.437104209379582 19.398865835398638, -14.048292152847871 19.3399052695533 M-12.804056789623893 19.45993515863156 C-13.09597124718017 19.431774521989606, -13.387885704736446 19.40361388534765, -14.048292152847871 19.3399052695533 M-14.048292152847871 19.3399052695533 C-14.38442928437735 19.28556122491, -14.720566415906827 19.2312171802667, -15.282280759676759 19.140403561325773 M-14.048292152847871 19.3399052695533 C-14.490869660942053 19.268352770284466, -14.933447169036233 19.196800271015636, -15.282280759676759 19.140403561325773 M-15.282280759676759 19.140403561325773 C-15.610729139256023 19.065437362012787, -15.939177518835287 18.9904711626998, -16.500951886235388 18.862249829261074 M-15.282280759676759 19.140403561325773 C-15.687210518493568 19.04798098628946, -16.092140277310378 18.955558411253143, -16.500951886235388 18.862249829261074 M-16.500951886235388 18.862249829261074 C-16.807748036841787 18.771194342166954, -17.114544187448185 18.68013885507283, -17.69929775146059 18.506587066708043 M-16.500951886235388 18.862249829261074 C-16.86972240035218 18.75280067638714, -17.238492914468974 18.643351523513207, -17.69929775146059 18.506587066708043 M-17.69929775146059 18.506587066708043 C-18.128172819513335 18.348757077186963, -18.557047887566075 18.190927087665884, -18.872394095147797 18.074876768247425 M-17.69929775146059 18.506587066708043 C-18.163638439970065 18.335705401018284, -18.62797912847954 18.16482373532853, -18.872394095147797 18.074876768247425 M-18.872394095147797 18.074876768247425 C-19.280097841711875 17.894398413745446, -19.687801588275956 17.713920059243463, -20.01542041279238 17.568892924097174 M-18.872394095147797 18.074876768247425 C-19.19871479371619 17.93042427495079, -19.52503549228458 17.78597178165416, -20.01542041279238 17.568892924097174 M-20.01542041279238 17.568892924097174 C-20.26893952895826 17.436632163580178, -20.52245864512414 17.304371403063183, -21.12367976407678 16.990714730406097 M-20.01542041279238 17.568892924097174 C-20.336694316257276 17.401284534445296, -20.65796821972217 17.233676144793414, -21.12367976407678 16.990714730406097 M-21.12367976407678 16.990714730406097 C-21.485123551900802 16.77160538214771, -21.84656733972482 16.55249603388932, -22.192618073605686 16.3427180453909 M-21.12367976407678 16.990714730406097 C-21.449061043674757 16.793466686561157, -21.774442323272737 16.59621864271622, -22.192618073605686 16.3427180453909 M-22.192618073605686 16.3427180453909 C-22.453978605889745 16.16040425218463, -22.715339138173807 15.978090458978365, -23.217842844578712 15.627565626425156 M-22.192618073605686 16.3427180453909 C-22.527446575618864 16.109156176878752, -22.862275077632038 15.875594308366603, -23.217842844578712 15.627565626425156 M-23.217842844578712 15.627565626425156 C-23.50349721529104 15.399763867364124, -23.789151586003367 15.171962108303093, -24.19514120850187 14.848196188198125 M-23.217842844578712 15.627565626425156 C-23.477671253101843 15.420359384952294, -23.73749966162497 15.213153143479433, -24.19514120850187 14.848196188198125 M-24.19514120850187 14.848196188198125 C-24.509504551213684 14.562699717945511, -24.823867893925502 14.277203247692897, -25.120497236767974 14.007812326905697 M-24.19514120850187 14.848196188198125 C-24.448266138216066 14.618314824350332, -24.70139106793026 14.388433460502537, -25.120497236767974 14.007812326905697 M-25.120497236767974 14.007812326905697 C-25.36591246178336 13.754400958112619, -25.611327686798745 13.500989589319543, -25.990108442968655 13.109867360095677 M-25.120497236767974 14.007812326905697 C-25.35415776757544 13.766538644960638, -25.587818298382906 13.52526496301558, -25.990108442968655 13.109867360095677 M-25.990108442968655 13.109867360095677 C-26.28286456137039 12.765979365125954, -26.575620679772122 12.422091370156231, -26.80040140812658 12.158051136245307 M-25.990108442968655 13.109867360095677 C-26.193076614374608 12.871449396746117, -26.39604478578056 12.633031433396557, -26.80040140812658 12.158051136245307 M-26.80040140812658 12.158051136245307 C-27.02902711972971 11.851713510927913, -27.257652831332845 11.545375885610522, -27.548046464640635 11.156274872382316 M-26.80040140812658 12.158051136245307 C-27.045950007560386 11.829038382941608, -27.291498606994192 11.500025629637909, -27.548046464640635 11.156274872382316 M-27.548046464640635 11.156274872382316 C-27.75043103465338 10.845357824976269, -27.952815604666128 10.534440777570222, -28.229971378604244 10.108655082055249 M-27.548046464640635 11.156274872382316 C-27.793137476946043 10.779749261329272, -28.038228489251455 10.40322365027623, -28.229971378604244 10.108655082055249 M-28.229971378604244 10.108655082055249 C-28.44604272397825 9.724998528747442, -28.662114069352253 9.341341975439635, -28.8433739742735 9.019496659696289 M-28.229971378604244 10.108655082055249 C-28.392006740747163 9.820944888710873, -28.55404210289008 9.533234695366499, -28.8433739742735 9.019496659696289 M-28.8433739742735 9.019496659696289 C-28.961949359410777 8.773272335351926, -29.080524744548054 8.527048011007565, -29.38573364880834 7.893275190886686 M-28.8433739742735 9.019496659696289 C-28.968342393808545 8.759997062635941, -29.09331081334359 8.500497465575592, -29.38573364880834 7.893275190886686 M-29.38573364880834 7.893275190886686 C-29.519821700987467 7.562075109588116, -29.653909753166594 7.230875028289545, -29.854821729970325 6.73461856121551 M-29.38573364880834 7.893275190886686 C-29.498498841131713 7.614742985681276, -29.611264033455086 7.3362107804758665, -29.854821729970325 6.73461856121551 M-29.854821729970325 6.73461856121551 C-29.97076124691464 6.385427208632646, -30.086700763858957 6.036235856049782, -30.24871063421488 5.5482879393051325 M-29.854821729970325 6.73461856121551 C-30.008481154761334 6.271820856049571, -30.16214057955234 5.8090231508836325, -30.24871063421488 5.5482879393051325 M-30.24871063421488 5.5482879393051325 C-30.313908179878634 5.299661440894206, -30.379105725542388 5.051034942483279, -30.565781787545557 4.339158212148136 M-30.24871063421488 5.5482879393051325 C-30.346803972204203 5.174215527630237, -30.44489731019352 4.800143115955341, -30.565781787545557 4.339158212148136 M-30.565781787545557 4.339158212148136 C-30.640040467089843 3.9578555872657195, -30.714299146634126 3.5765529623833032, -30.804732276581777 3.112197953150904 M-30.565781787545557 4.339158212148136 C-30.616049532940526 4.081043963636723, -30.666317278335498 3.8229297151253085, -30.804732276581777 3.112197953150904 M-30.804732276581777 3.112197953150904 C-30.86233032914815 2.665478831468064, -30.919928381714527 2.218759709785224, -30.964580202509364 1.872449005199809 M-30.804732276581777 3.112197953150904 C-30.861721735985917 2.6701989598540403, -30.91871119539006 2.2281999665571766, -30.964580202509364 1.872449005199809 M-30.964580202509364 1.872449005199809 C-30.98696128689748 1.5238455501687744, -31.00934237128559 1.1752420951377398, -31.044668715913414 0.6250057626472781 M-30.964580202509364 1.872449005199809 C-30.99165022645021 1.4508115317910697, -31.01872025039106 1.0291740583823303, -31.044668715913414 0.6250057626472781 M-31.044668715913414 0.6250057626472781 C-31.044668715913414 0.18858486703261812, -31.044668715913414 -0.2478360285820419, -31.044668715913414 -0.6250057626472687 M-31.044668715913414 0.6250057626472781 C-31.044668715913414 0.21261956490158063, -31.044668715913414 -0.1997666328441169, -31.044668715913414 -0.6250057626472687 M-31.044668715913414 -0.6250057626472687 C-31.01637360429893 -1.0657249654458758, -30.988078492684448 -1.506444168244483, -30.964580202509367 -1.8724490051997822 M-31.044668715913414 -0.6250057626472687 C-31.01358871551517 -1.1091018561747263, -30.982508715116925 -1.593197949702184, -30.964580202509367 -1.8724490051997822 M-30.964580202509367 -1.8724490051997822 C-30.916439179026376 -2.2458212768135035, -30.86829815554339 -2.619193548427225, -30.804732276581777 -3.112197953150895 M-30.964580202509367 -1.8724490051997822 C-30.91854973148403 -2.2294522487276573, -30.8725192604587 -2.5864554922555323, -30.804732276581777 -3.112197953150895 M-30.804732276581777 -3.112197953150895 C-30.752981452870916 -3.3779274953656975, -30.701230629160058 -3.6436570375804997, -30.56578178754556 -4.339158212148126 M-30.804732276581777 -3.112197953150895 C-30.742775421139317 -3.4303333112618972, -30.680818565696857 -3.7484686693728992, -30.56578178754556 -4.339158212148126 M-30.56578178754556 -4.339158212148126 C-30.44788637385078 -4.788744520761845, -30.329990960155996 -5.238330829375563, -30.248710634214884 -5.548287939305123 M-30.56578178754556 -4.339158212148126 C-30.440850452345288 -4.815575538849945, -30.315919117145018 -5.291992865551764, -30.248710634214884 -5.548287939305123 M-30.248710634214884 -5.548287939305123 C-30.15723218998552 -5.823806438213213, -30.06575374575616 -6.0993249371213025, -29.854821729970332 -6.734618561215485 M-30.248710634214884 -5.548287939305123 C-30.138918034384687 -5.8789657569184985, -30.02912543455449 -6.209643574531875, -29.854821729970332 -6.734618561215485 M-29.854821729970332 -6.734618561215485 C-29.752246051340112 -6.987982470597961, -29.649670372709892 -7.241346379980438, -29.385733648808344 -7.893275190886676 M-29.854821729970332 -6.734618561215485 C-29.677413284884043 -7.172820850537571, -29.500004839797754 -7.611023139859656, -29.385733648808344 -7.893275190886676 M-29.385733648808344 -7.893275190886676 C-29.270140518629322 -8.133306799000188, -29.1545473884503 -8.3733384071137, -28.843373974273504 -9.019496659696282 M-29.385733648808344 -7.893275190886676 C-29.23326233343853 -8.209885139615617, -29.080791018068723 -8.526495088344559, -28.843373974273504 -9.019496659696282 M-28.843373974273504 -9.019496659696282 C-28.70364790027145 -9.26759445288617, -28.56392182626939 -9.515692246076059, -28.229971378604247 -10.108655082055243 M-28.843373974273504 -9.019496659696282 C-28.714041652994922 -9.249139292444053, -28.584709331716336 -9.478781925191823, -28.229971378604247 -10.108655082055243 M-28.229971378604247 -10.108655082055243 C-28.049181288550216 -10.38639720931491, -27.86839119849618 -10.664139336574577, -27.54804646464064 -11.156274872382308 M-28.229971378604247 -10.108655082055243 C-28.080976161243917 -10.337551746738615, -27.931980943883588 -10.566448411421987, -27.54804646464064 -11.156274872382308 M-27.54804646464064 -11.156274872382308 C-27.39097901073286 -11.366730951479317, -27.233911556825078 -11.577187030576328, -26.800401408126586 -12.158051136245302 M-27.54804646464064 -11.156274872382308 C-27.328075972602864 -11.451015291988847, -27.10810548056509 -11.745755711595386, -26.800401408126586 -12.158051136245302 M-26.800401408126586 -12.158051136245302 C-26.625043921898367 -12.364036017692602, -26.449686435670145 -12.570020899139903, -25.990108442968662 -13.10986736009567 M-26.800401408126586 -12.158051136245302 C-26.575944902808008 -12.42171051932947, -26.35148839748943 -12.685369902413639, -25.990108442968662 -13.10986736009567 M-25.990108442968662 -13.10986736009567 C-25.64265983635934 -13.468636572480909, -25.29521122975002 -13.827405784866146, -25.120497236767996 -14.007812326905677 M-25.990108442968662 -13.10986736009567 C-25.788926901688896 -13.317603818778746, -25.587745360409134 -13.525340277461822, -25.120497236767996 -14.007812326905677 M-25.120497236767996 -14.007812326905677 C-24.792941754711602 -14.305289549066156, -24.465386272655206 -14.602766771226637, -24.195141208501887 -14.848196188198107 M-25.120497236767996 -14.007812326905677 C-24.91326174332407 -14.196018118900758, -24.70602624988015 -14.384223910895841, -24.195141208501887 -14.848196188198107 M-24.195141208501887 -14.848196188198107 C-23.981712400615013 -15.018399982908786, -23.76828359272814 -15.188603777619464, -23.21784284457872 -15.627565626425149 M-24.195141208501887 -14.848196188198107 C-23.963195636610646 -15.033166609450483, -23.731250064719408 -15.218137030702858, -23.21784284457872 -15.627565626425149 M-23.21784284457872 -15.627565626425149 C-22.84595642757307 -15.886977492224762, -22.474070010567427 -16.146389358024372, -22.19261807360571 -16.342718045390885 M-23.21784284457872 -15.627565626425149 C-22.849370409183532 -15.884596046442189, -22.48089797378834 -16.14162646645923, -22.19261807360571 -16.342718045390885 M-22.19261807360571 -16.342718045390885 C-21.90091771269436 -16.51954851839694, -21.60921735178301 -16.696378991403, -21.12367976407679 -16.99071473040609 M-22.19261807360571 -16.342718045390885 C-21.924672462631836 -16.50514824938644, -21.65672685165796 -16.667578453381992, -21.12367976407679 -16.99071473040609 M-21.12367976407679 -16.99071473040609 C-20.75151545251523 -17.184872613365137, -20.379351140953666 -17.379030496324187, -20.015420412792388 -17.56889292409717 M-21.12367976407679 -16.99071473040609 C-20.848341508662962 -17.134358521892914, -20.573003253249134 -17.27800231337974, -20.015420412792388 -17.56889292409717 M-20.015420412792388 -17.56889292409717 C-19.565242965617113 -17.768173125922164, -19.11506551844184 -17.967453327747158, -18.872394095147804 -18.07487676824742 M-20.015420412792388 -17.56889292409717 C-19.731316247672883 -17.694657410344952, -19.447212082553378 -17.820421896592734, -18.872394095147804 -18.07487676824742 M-18.872394095147804 -18.07487676824742 C-18.595260729564014 -18.176864408575003, -18.31812736398022 -18.27885204890259, -17.69929775146062 -18.506587066708033 M-18.872394095147804 -18.07487676824742 C-18.51535140194506 -18.206271779812507, -18.158308708742315 -18.337666791377593, -17.69929775146062 -18.506587066708033 M-17.69929775146062 -18.506587066708033 C-17.31183652861756 -18.62158352382239, -16.924375305774504 -18.73657998093675, -16.500951886235413 -18.862249829261067 M-17.69929775146062 -18.506587066708033 C-17.223512197028377 -18.647797721814182, -16.747726642596138 -18.789008376920332, -16.500951886235413 -18.862249829261067 M-16.500951886235413 -18.862249829261067 C-16.183325120548847 -18.934746065820676, -15.86569835486228 -19.007242302380284, -15.282280759676768 -19.140403561325773 M-16.500951886235413 -18.862249829261067 C-16.055991069009128 -18.963809232152276, -15.611030251782841 -19.065368635043484, -15.282280759676768 -19.140403561325773 M-15.282280759676768 -19.140403561325773 C-14.999379380197862 -19.186140862426956, -14.716478000718956 -19.231878163528144, -14.04829215284788 -19.3399052695533 M-15.282280759676768 -19.140403561325773 C-14.995764858028906 -19.186725230340198, -14.709248956381042 -19.233046899354623, -14.04829215284788 -19.3399052695533 M-14.04829215284788 -19.3399052695533 C-13.702056534492803 -19.37330620324676, -13.355820916137725 -19.40670713694022, -12.804056789623903 -19.45993515863156 M-14.04829215284788 -19.3399052695533 C-13.729984462030504 -19.370612029665445, -13.411676771213129 -19.40131878977759, -12.804056789623903 -19.45993515863156 M-12.804056789623903 -19.45993515863156 C-12.365218675516717 -19.474007842804404, -11.92638056140953 -19.488080526977253, -11.554687500000005 -19.5 M-12.804056789623903 -19.45993515863156 C-12.33871148022379 -19.474857876964325, -11.873366170823676 -19.489780595297088, -11.554687500000005 -19.5 M-11.554687500000005 -19.5 C-11.554687500000004 -19.5, -11.554687500000002 -19.5, -11.5546875 -19.5 M-11.554687500000005 -19.5 C-11.554687500000004 -19.5, -11.554687500000004 -19.5, -11.5546875 -19.5" stroke="#9370DB" stroke-width="1.3" fill="none" stroke-dasharray="0 0" style=""/></g><g class="label" style="" transform="translate(-18.6796875, -12)"><rect/><foreignObject width="37.359375" height="24"><div xmlns="http://www.w3.org/1999/xhtml" style="display: table-cell; white-space: nowrap; line-height: 1.5; max-width: 200px; text-align: center;"><span class="nodeLabel"><p>Inicio</p></span></div></foreignObject></g></g><g class="node default" id="my-svg-flowchart-CHECK-1" data-look="classic" transform="translate(681.27734375, 189.671875)"><polygon points="92.671875,0 185.34375,-92.671875 92.671875,-185.34375 0,-92.671875" class="label-container" transform="translate(-92.171875, 92.671875)"/><g class="label" style="" transform="translate(-65.671875, -12)"><rect/><foreignObject width="131.34375" height="24"><div xmlns="http://www.w3.org/1999/xhtml" style="display: table-cell; white-space: nowrap; line-height: 1.5; max-width: 200px; text-align: center;"><span class="nodeLabel"><p>GCP configurado?</p></span></div></foreignObject></g></g><g class="node default" id="my-svg-flowchart-GCP-3" data-look="classic" transform="translate(562.4609375, 383.34375)"><rect class="basic label-container" style="" x="-98.4921875" y="-27" width="196.984375" height="54"/><g class="label" style="" transform="translate(-68.4921875, -12)"><rect/><foreignObject width="136.984375" height="24"><div xmlns="http://www.w3.org/1999/xhtml" style="display: table-cell; white-space: nowrap; line-height: 1.5; max-width: 200px; text-align: center;"><span class="nodeLabel"><p>Vertex AI Producao</p></span></div></foreignObject></g></g><g class="node default" id="my-svg-flowchart-LOCAL-5" data-look="classic" transform="translate(800.09375, 383.34375)"><rect class="basic label-container" style="" x="-71.359375" y="-27" width="142.71875" height="54"/><g class="label" style="" transform="translate(-41.359375, -12)"><rect/><foreignObject width="82.71875" height="24"><div xmlns="http://www.w3.org/1999/xhtml" style="display: table-cell; white-space: nowrap; line-height: 1.5; max-width: 200px; text-align: center;"><span class="nodeLabel"><p>Modo Local</p></span></div></foreignObject></g></g><g class="node default" id="my-svg-flowchart-T1-7" data-look="classic" transform="translate(107.0703125, 487.34375)"><rect class="basic label-container" style="" x="-99.0703125" y="-27" width="198.140625" height="54"/><g class="label" style="" transform="translate(-69.0703125, -12)"><rect/><foreignObject width="138.140625" height="24"><div xmlns="http://www.w3.org/1999/xhtml" style="display: table-cell; white-space: nowrap; line-height: 1.5; max-width: 200px; text-align: center;"><span class="nodeLabel"><p>CustomTrainingJob</p></span></div></foreignObject></g></g><g class="node default" id="my-svg-flowchart-T2-9" data-look="classic" transform="translate(562.4609375, 487.34375)"><rect class="basic label-container" style="" x="-86.9296875" y="-27" width="173.859375" height="54"/><g class="label" style="" transform="translate(-56.9296875, -12)"><rect/><foreignObject width="113.859375" height="24"><div xmlns="http://www.w3.org/1999/xhtml" style="display: table-cell; white-space: nowrap; line-height: 1.5; max-width: 200px; text-align: center;"><span class="nodeLabel"><p>Endpoint Online</p></span></div></foreignObject></g></g><g class="node default" id="my-svg-flowchart-T3-11" data-look="classic" transform="translate(1039.0546875, 487.34375)"><rect class="basic label-container" style="" x="-88.2578125" y="-27" width="176.515625" height="54"/><g class="label" style="" transform="translate(-58.2578125, -12)"><rect/><foreignObject width="116.515625" height="24"><div xmlns="http://www.w3.org/1999/xhtml" style="display: table-cell; white-space: nowrap; line-height: 1.5; max-width: 200px; text-align: center;"><span class="nodeLabel"><p>Batch Prediction</p></span></div></foreignObject></g></g><g class="node default" id="my-svg-flowchart-L1-13" data-look="classic" transform="translate(340.8359375, 487.34375)"><rect class="basic label-container" style="" x="-84.6953125" y="-27" width="169.390625" height="54"/><g class="label" style="" transform="translate(-54.6953125, -12)"><rect/><foreignObject width="109.390625" height="24"><div xmlns="http://www.w3.org/1999/xhtml" style="display: table-cell; white-space: nowrap; line-height: 1.5; max-width: 200px; text-align: center;"><span class="nodeLabel"><p>Isolation Forest</p></span></div></foreignObject></g></g><g class="node default" id="my-svg-flowchart-L2-15" data-look="classic" transform="translate(800.09375, 487.34375)"><rect class="basic label-container" style="" x="-100.703125" y="-27" width="201.40625" height="54"/><g class="label" style="" transform="translate(-70.703125, -12)"><rect/><foreignObject width="141.40625" height="24"><div xmlns="http://www.w3.org/1999/xhtml" style="display: table-cell; white-space: nowrap; line-height: 1.5; max-width: 200px; text-align: center;"><span class="nodeLabel"><p>Detector Contextual</p></span></div></foreignObject></g></g><g class="node default" id="my-svg-flowchart-L3-17" data-look="classic" transform="translate(1293.578125, 487.34375)"><rect class="basic label-container" style="" x="-116.265625" y="-27" width="232.53125" height="54"/><g class="label" style="" transform="translate(-86.265625, -12)"><rect/><foreignObject width="172.53125" height="24"><div xmlns="http://www.w3.org/1999/xhtml" style="display: table-cell; white-space: nowrap; line-height: 1.5; max-width: 200px; text-align: center;"><span class="nodeLabel"><p>Predicoes Batch JSONL</p></span></div></foreignObject></g></g><g class="node default" id="my-svg-flowchart-OUT1-20" data-look="classic" transform="translate(223.953125, 591.34375)"><rect class="basic label-container" style="" x="-89.59375" y="-27" width="179.1875" height="54"/><g class="label" style="" transform="translate(-59.59375, -12)"><rect/><foreignObject width="119.1875" height="24"><div xmlns="http://www.w3.org/1999/xhtml" style="display: table-cell; white-space: nowrap; line-height: 1.5; max-width: 200px; text-align: center;"><span class="nodeLabel"><p>Modelo Treinado</p></span></div></foreignObject></g></g><g class="node default" id="my-svg-flowchart-OUT2-23" data-look="classic" transform="translate(681.27734375, 591.34375)"><rect class="basic label-container" style="" x="-80.25" y="-27" width="160.5" height="54"/><g class="label" style="" transform="translate(-50.25, -12)"><rect/><foreignObject width="100.5" height="24"><div xmlns="http://www.w3.org/1999/xhtml" style="display: table-cell; white-space: nowrap; line-height: 1.5; max-width: 200px; text-align: center;"><span class="nodeLabel"><p>Alertas Online</p></span></div></foreignObject></g></g><g class="node default" id="my-svg-flowchart-OUT3-26" data-look="classic" transform="translate(1166.31640625, 591.34375)"><rect class="basic label-container" style="" x="-81.5859375" y="-27" width="163.171875" height="54"/><g class="label" style="" transform="translate(-51.5859375, -12)"><rect/><foreignObject width="103.171875" height="24"><div xmlns="http://www.w3.org/1999/xhtml" style="display: table-cell; white-space: nowrap; line-height: 1.5; max-width: 200px; text-align: center;"><span class="nodeLabel"><p>Coorte Scored</p></span></div></foreignObject></g></g></g></g></g><defs><filter id="my-svg-drop-shadow" height="130%" width="130%"><feDropShadow dx="4" dy="4" stdDeviation="0" flood-opacity="0.06" flood-color="#000000"/></filter></defs><defs><filter id="my-svg-drop-shadow-small" height="150%" width="150%"><feDropShadow dx="2" dy="2" stdDeviation="0" flood-opacity="0.06" flood-color="#000000"/></filter></defs></svg>